<svg width="578" height="424" viewBox="0 0 578 424" fill="none" xmlns="http://www.w3.org/2000/svg">
<g clip-path="url(#clip0_4_2)">
<path d="M488.022 294.449C487.424 293.755 486.978 292.931 486.715 292.037C486.453 291.143 486.38 290.199 486.503 289.272C486.626 288.345 486.941 287.457 487.426 286.672C487.911 285.886 488.554 285.222 489.311 284.726L484.473 262.549L495.026 266.691L498.003 287.116C498.713 288.504 498.914 290.117 498.566 291.65C498.219 293.183 497.347 294.529 496.117 295.433C494.887 296.337 493.383 296.736 491.892 296.554C490.4 296.373 489.023 295.624 488.022 294.449Z" fill="#FFB8B8"/>
<path d="M487.292 276.848L478.014 258.029L479.269 210.643L479.865 211.961C480.56 213.497 496.839 249.652 495.678 261.756L497.538 272.817L487.292 276.848Z" fill="#3F3D56"/>
<path d="M481.243 415.923H488.683L492.221 385.818L481.241 385.819L481.243 415.923Z" fill="#af79ee"/>
<path d="M479.345 413.375L493.996 413.375H493.997C496.473 413.375 498.848 414.407 500.599 416.244C502.35 418.08 503.333 420.572 503.333 423.17V423.488L479.346 423.489L479.345 413.375Z" fill="#2F2E41"/>
<path d="M407.737 409.992L414.905 412.082L426.003 384.073L415.424 380.987L407.737 409.992Z" fill="#af79ee"/>
<path d="M406.56 407.003L420.675 411.121L420.676 411.121C423.062 411.817 425.086 413.479 426.304 415.741C427.521 418.003 427.833 420.68 427.169 423.182L427.088 423.489L403.977 416.747L406.56 407.003Z" fill="#2F2E41"/>
<path d="M473.826 404.187L458.812 291.403L426.384 403.549L400.886 394.415L437.43 244.248L437.671 244.23L475.954 241.437L503.613 395.072L473.826 404.187Z" fill="#2F2E41"/>
<path d="M469.855 191.102C469.855 191.102 455.898 183.463 437.087 186.646C437.087 186.646 427.075 211.988 437.087 222.077L439.818 247.444C439.818 247.444 465.304 263.36 473.799 244.898L472.586 223.889C472.586 223.889 478.654 213.813 473.799 206.437C470.889 201.931 469.501 196.533 469.855 191.102Z" fill="#af79ee"/>
<path d="M471.623 306.487L474.073 253.157L467.14 189.716L467.458 189.666C476.552 188.227 479.469 204.665 479.589 205.365L495.418 299.26L471.623 306.487Z" fill="#3F3D56"/>
<path d="M440.761 307.042L412.777 303.78L412.785 303.46C412.884 299.113 415.293 196.921 422.042 189.684C428.831 182.403 441.642 185.553 442.184 185.692L442.454 185.76L440.151 229.002L440.761 307.042Z" fill="#3F3D56"/>
<path d="M445.915 245.965C445.068 246.257 444.17 246.35 443.284 246.238C442.398 246.126 441.547 245.812 440.789 245.318C440.032 244.823 439.387 244.16 438.9 243.376C438.413 242.592 438.096 241.705 437.971 240.779L416.691 236.405L424.588 227.971L443.585 233.418C445.083 233.3 446.569 233.764 447.763 234.72C448.957 235.676 449.775 237.058 450.062 238.605C450.349 240.152 450.086 241.755 449.322 243.112C448.557 244.468 447.346 245.483 445.915 245.965Z" fill="#FFB8B8"/>
<path d="M434.56 240.845L427.626 239.281C417.39 242.511 399.523 231.141 392.302 226.09C390.943 225.14 390.502 223.257 390.992 220.495C391.714 216.631 393.744 213.172 396.707 210.755L422.14 189.598L428.559 188.472L430.466 199.808L414.262 218.068L438.116 231.689L434.56 240.845Z" fill="#3F3D56"/>
<path d="M431.818 177.049V162.35C431.818 156.131 434.172 150.166 438.364 145.769C442.555 141.371 448.24 138.901 454.168 138.901C460.096 138.901 465.781 141.371 469.972 145.769C474.164 150.166 476.519 156.131 476.519 162.35V177.049C476.518 177.884 476.201 178.685 475.638 179.276C475.076 179.866 474.312 180.198 473.516 180.199H434.82C434.024 180.198 433.261 179.866 432.698 179.276C432.135 178.685 431.818 177.884 431.818 177.049Z" fill="#2F2E41"/>
<path d="M453.27 180.054C462.32 180.054 469.656 172.357 469.656 162.862C469.656 153.368 462.32 145.67 453.27 145.67C444.22 145.67 436.883 153.368 436.883 162.862C436.883 172.357 444.22 180.054 453.27 180.054Z" fill="#FFB8B8"/>
<path d="M436.433 162.796C436.277 162.607 436.161 162.384 436.094 162.143C436.026 161.903 436.009 161.649 436.043 161.401L437.984 147.22C438.023 146.931 438.129 146.657 438.294 146.423C438.459 146.188 438.676 146.001 438.928 145.877C448.836 141.012 458.883 141.006 468.791 145.858C469.054 145.989 469.28 146.189 469.447 146.439C469.614 146.689 469.716 146.98 469.744 147.283L471.04 161.483C471.062 161.726 471.036 161.971 470.962 162.202C470.889 162.434 470.77 162.647 470.614 162.827C470.458 163.008 470.267 163.152 470.054 163.25C469.842 163.349 469.612 163.4 469.379 163.4H466.093C465.776 163.399 465.465 163.304 465.198 163.125C464.93 162.946 464.717 162.691 464.582 162.39L463.163 159.202C463.072 158.996 462.918 158.826 462.727 158.719C462.535 158.612 462.315 158.573 462.101 158.609C461.886 158.644 461.689 158.752 461.538 158.915C461.387 159.079 461.29 159.29 461.264 159.516L460.983 161.867C460.933 162.29 460.736 162.679 460.432 162.961C460.127 163.243 459.735 163.399 459.328 163.4H437.694C437.455 163.4 437.219 163.346 437.001 163.242C436.784 163.138 436.59 162.986 436.433 162.796Z" fill="#2F2E41"/>
<path d="M367.617 28.2552H0V268.425H367.617V28.2552Z" fill="#af79ee" fill-opacity="0.2"/>
<path d="M91.9808 74.5231H24.6517V120.438H91.9808V74.5231Z" fill="#af79ee"/>
<path d="M175.642 74.5231H108.313V120.438H175.642V74.5231Z" fill="#af79ee"/>
<path d="M259.304 74.5231H191.975V120.438H259.304V74.5231Z" fill="#af79ee"/>
<path d="M342.965 74.5231H275.636V120.438H342.965V74.5231Z" fill="#af79ee"/>
<path d="M91.9808 139.51H24.6517V185.425H91.9808V139.51Z" fill="#af79ee"/>
<path d="M175.642 139.51H108.313V185.425H175.642V139.51Z" fill="#af79ee"/>
<path d="M259.304 139.51H191.975V185.425H259.304V139.51Z" fill="#af79ee"/>
<path d="M342.965 139.51H275.636V185.425H342.965V139.51Z" fill="#af79ee"/>
<path d="M91.9808 204.497H24.6517V250.412H91.9808V204.497Z" fill="#af79ee"/>
<path d="M175.642 204.497H108.313V250.412H175.642V204.497Z" fill="#af79ee"/>
<path d="M259.304 204.497H191.975V250.412H259.304V204.497Z" fill="#af79ee"/>
<path d="M342.965 204.497H275.636V250.412H342.965V204.497Z" fill="#af79ee"/>
<path d="M96.2807 56.5104C101.858 56.5104 106.38 51.7666 106.38 45.9147C106.38 40.0629 101.858 35.319 96.2807 35.319C90.7029 35.319 86.1813 40.0629 86.1813 45.9147C86.1813 51.7666 90.7029 56.5104 96.2807 56.5104Z" fill="#af79ee"/>
<path d="M263.257 56.5104C268.835 56.5104 273.356 51.7666 273.356 45.9147C273.356 40.0629 268.835 35.319 263.257 35.319C257.679 35.319 253.158 40.0629 253.158 45.9147C253.158 51.7666 257.679 56.5104 263.257 56.5104Z" fill="#af79ee"/>
<path d="M100.32 0H92.2409V48.7402H100.32V0Z" fill="#af79ee" fill-opacity="0.2"/>
<path d="M267.297 0H259.217V48.7402H267.297V0Z" fill="#af79ee" fill-opacity="0.2"/>
<path d="M324.527 97.4805C324.523 101.316 323.2 105.022 320.801 107.917C318.402 110.812 315.088 112.701 311.467 113.238C307.847 113.774 304.164 112.922 301.094 110.838C298.025 108.754 295.775 105.577 294.759 101.892C293.743 98.2074 294.028 94.2615 295.563 90.7797C297.098 87.298 299.778 84.5141 303.112 82.9398C306.447 81.3654 310.21 81.1063 313.712 82.21C317.214 83.3137 320.218 85.706 322.173 88.9475C323.713 91.5002 324.529 94.4596 324.527 97.4805Z" fill="#FDFDFD"/>
<path d="M322.173 88.9476L307.186 104.669C306.244 103.139 300.996 96.0283 300.996 96.0283C301.669 95.3152 302.386 94.6505 303.144 94.0389L307.496 100.126L320.418 86.5689C321.074 87.3019 321.661 88.0983 322.173 88.9476Z" fill="#af79ee"/>
<path d="M157.203 162.467C157.2 166.303 155.877 170.009 153.478 172.904C151.079 175.799 147.765 177.688 144.144 178.225C140.524 178.761 136.841 177.909 133.771 175.825C130.702 173.741 128.452 170.564 127.436 166.879C126.42 163.194 126.705 159.249 128.24 155.767C129.774 152.285 132.455 149.501 135.789 147.927C139.124 146.352 142.887 146.093 146.389 147.197C149.891 148.301 152.895 150.693 154.85 153.935C156.39 156.487 157.206 159.447 157.203 162.467Z" fill="#FDFDFD"/>
<path d="M154.85 153.935L139.863 169.656C138.921 168.126 133.673 161.015 133.673 161.015C134.345 160.302 135.063 159.637 135.821 159.026L140.173 165.113L153.095 151.556C153.751 152.289 154.338 153.085 154.85 153.935Z" fill="#af79ee"/>
<path d="M73.5418 162.467C73.5383 166.304 72.2155 170.009 69.8164 172.904C67.4173 175.799 64.1031 177.688 60.4827 178.225C56.8623 178.761 53.179 177.909 50.1094 175.825C47.0399 173.741 44.7904 170.564 43.7743 166.879C42.7581 163.194 43.0436 159.249 44.5782 155.767C46.1128 152.285 48.7935 149.501 52.1277 147.927C55.4619 146.352 59.2256 146.093 62.7274 147.197C66.2291 148.301 69.2336 150.693 71.1888 153.935C72.7284 156.487 73.5445 159.447 73.5418 162.467Z" fill="#FDFDFD"/>
<path d="M71.1888 153.935L56.2013 169.656C55.2593 168.126 50.0114 161.015 50.0114 161.015C50.6839 160.302 51.4016 159.637 52.1596 159.026L56.5113 165.113L69.4337 151.556C70.089 152.289 70.6767 153.085 71.1888 153.935Z" fill="#af79ee"/>
<path d="M577.333 424H323.137C322.96 424 322.79 423.926 322.665 423.795C322.54 423.664 322.469 423.486 322.469 423.3C322.469 423.114 322.54 422.936 322.665 422.805C322.79 422.674 322.96 422.6 323.137 422.6H577.333C577.51 422.6 577.679 422.674 577.805 422.805C577.93 422.936 578 423.114 578 423.3C578 423.486 577.93 423.664 577.805 423.795C577.679 423.926 577.51 424 577.333 424Z" fill="#3F3D56"/>
<rect x="-24" y="75" width="400" height="400" rx="200" fill="#af79ee" fill-opacity="0.2"/>
</g>
<defs>
<clipPath id="clip0_4_2">
<rect width="578" height="424" fill="white"/>
</clipPath>
</defs>
</svg>
